<svg xmlns="http://www.w3.org/2000/svg" width="170" height="40" fill="none" viewBox="0 0 179 40"><g clip-path="url(#a)"><path fill="#FF062E" d="M173.128 0h-29.646c-2.967 0-5.372 2.37-5.372 5.295v29.221c0 2.925 2.405 5.295 5.372 5.295h29.646c2.967 0 5.372-2.37 5.372-5.295V5.296C178.5 2.37 176.095 0 173.128 0Z"/><path fill="#fff" d="m153.057 20.049.925-9.365a.02.02 0 0 1 0-.021h9.047l.022.021v3.033h-6.075l-.022.021-.331 3.897a.02.02 0 0 0 .007.007.024.024 0 0 0 .01.002c.003 0 .006 0 .01-.002a3.87 3.87 0 0 1 2.146-.682 4.282 4.282 0 0 1 1.993.377 4.216 4.216 0 0 1 1.585 1.25c.838 1.083 1.257 2.617 1.257 4.602 0 1.855-.499 3.35-1.497 4.482a5 5 0 0 1-1.797 1.31 5.07 5.07 0 0 1-2.196.41 5.66 5.66 0 0 1-3.408-1.11 4.348 4.348 0 0 1-.48-.43 5.39 5.39 0 0 1-1.191-1.777 5.335 5.335 0 0 1-.402-2.094.024.024 0 0 1 .009-.015.025.025 0 0 1 .017-.006h3.566a.02.02 0 0 1 .002.01c0 .004 0 .008-.002.011.017.638.217 1.258.576 1.79a1.538 1.538 0 0 0 1.265.64c.291.003.577-.077.823-.23.247-.152.445-.37.569-.63a5.331 5.331 0 0 0 .489-2.58 4.15 4.15 0 0 0-.585-2.422 1.885 1.885 0 0 0-.715-.619 1.923 1.923 0 0 0-.93-.199 1.94 1.94 0 0 0-1.597.701l-.223.306h-.026l-2.867-.731s.026.051.026.043ZM3.79 22.47v5.648H.5V12.06h5.551a5.152 5.152 0 0 1 2.086.335 5.093 5.093 0 0 1 1.768 1.14c.485.516.862 1.12 1.11 1.78.247.659.359 1.36.33 2.062a4.897 4.897 0 0 1-.316 2.01 4.953 4.953 0 0 1-1.107 1.715c-.948.912-2.258 1.368-3.928 1.368H3.791Zm0-2.701h2.261a1.804 1.804 0 0 0 1.453-.607c.377-.51.56-1.134.515-1.763a3.162 3.162 0 0 0-.523-1.915 1.68 1.68 0 0 0-.613-.534 1.709 1.709 0 0 0-.797-.188H3.791v5.007ZM16.826 25.43h5.778v2.688h-9.068V12.061h3.286l.004 13.369ZM32.494 24.832h-4.487l-.873 3.286h-3.49l5.088-16.057h3.011l5.124 16.057h-3.492l-.881-3.286Zm-3.77-2.701h3.054l-1.523-5.725-1.532 5.725ZM47.615 14.762h-4.032v13.335h-3.3V14.762h-3.962v-2.7h11.294v2.7ZM55.938 24.832h-4.486l-.873 3.286h-3.492l5.09-16.057h3.01l5.124 16.057h-3.513l-.86-3.286Zm-3.77-2.701h3.054l-1.536-5.725-1.519 5.725ZM70.27 21.567h-5.133v6.551h-3.29V12.061h9.02v2.701h-5.73v4.117h5.132v2.688ZM84.235 21.533c0 2.156-.517 3.83-1.55 5.02-1.032 1.19-2.466 1.786-4.303 1.79-1.827 0-3.263-.592-4.307-1.773-1.044-1.182-1.586-2.835-1.624-4.96v-2.744c0-2.205.518-3.926 1.554-5.162a5.29 5.29 0 0 1 1.94-1.429 5.365 5.365 0 0 1 2.38-.43 5.383 5.383 0 0 1 2.358.424 5.314 5.314 0 0 1 1.928 1.4c1.042 1.22 1.571 2.927 1.589 5.124l.035 2.74Zm-3.3-2.689c0-1.45-.209-2.527-.628-3.23a2.08 2.08 0 0 0-.818-.808 2.118 2.118 0 0 0-1.128-.254 2.13 2.13 0 0 0-1.115.242c-.343.18-.627.451-.823.781-.436.68-.633 1.72-.65 3.102v2.856c0 1.408.214 2.443.641 3.105.208.325.5.588.846.764a2.21 2.21 0 0 0 1.122.235c.379.023.757-.056 1.093-.228.337-.172.62-.43.819-.749.42-.648.633-1.652.642-3.011v-2.805ZM91.514 22.251h-1.632v5.867h-3.29V12.061h5.237c1.65 0 2.923.42 3.822 1.26.9.84 1.349 2.038 1.349 3.592 0 2.134-.787 3.626-2.36 4.478l2.853 6.573v.154h-3.54l-2.439-5.867Zm-1.632-2.701h1.868a1.768 1.768 0 0 0 1.475-.645c.35-.506.523-1.11.493-1.72 0-1.612-.637-2.418-1.911-2.418h-1.925v4.783ZM103.568 12.061l3.076 11.614 3.055-11.614h4.299v16.057h-3.304v-4.344l.306-6.693-3.256 11.037h-2.239l-3.255-11.037.301 6.693v4.344H99.26V12.061h4.308ZM124.624 24.832h-4.486l-.873 3.286h-3.491l5.119-16.057h3.011l5.128 16.057h-3.517l-.891-3.286Zm-3.77-2.701h3.054l-1.523-5.725-1.531 5.725Z"/></g><defs><clipPath id="a"><path fill="#fff" d="M.5 0h178v40H.5z"/></clipPath></defs></svg>