<svg xmlns="http://www.w3.org/2000/svg" width="202" height="140" fill="none" viewBox="0 0 202 140"><path fill="#F6B827" d="M4.217 36.966H152.91v65.806H4.217V36.966ZM5.28 107.753c6.71.422 13.406 1.031 20.104 1.623l5.125.451a29729.5 29729.5 0 0 1 18.136 1.597l.586.052 2.354.207a161996.835 161996.835 0 0 1 41.563 3.661l22.003 1.937 2.343.207.583.051 8.711.767 9.892.871 5.047.445 4.616.407 1.673.147 2.267.2.662.058c1.108.099 2.196.23 3.292.428-.248 3.825-.5 7.649-.813 11.47l-.064.802-.062.734-.053.639c-.07.512-.07.512-.335 1.036-7.613-.572-15.217-1.223-22.821-1.893l-5.013-.441-9.207-.81-8.496-.748-1.147-.101-1.728-.152-16.016-1.41-.607-.053-4.877-.43-19.085-1.679a154559.693 154559.693 0 0 1-23.793-2.094l-.57-.05-8.506-.748-9.654-.85-4.924-.433-4.504-.397-1.632-.144c-.737-.064-1.475-.129-2.212-.195l-.645-.056a36.78 36.78 0 0 1-3.256-.424c.181-4.907.633-9.792 1.062-14.682ZM152.91 4.195c.31.613.337 1.06.393 1.742l.064.767.066.83.071.853.145 1.788c.073.912.148 1.823.224 2.734l.141 1.737.068.826.062.774.055.678c.039.652.041 1.299.038 1.953-3.484.428-6.972.758-10.469 1.065l-1.776.157-4.846.427c-1.567.137-3.134.276-4.7.414a38445.644 38445.644 0 0 1-19.113 1.684l-.599.053-2.405.212-22.534 1.985-20.018 1.763-22.507 1.984-2.398.211-.596.052-8.918.787a34318.491 34318.491 0 0 1-15.303 1.347 6240.46 6240.46 0 0 1-6.444.568 1642.096 1642.096 0 0 1-3.002.265c-1.114.096-2.21.155-3.33.134a3924.952 3924.952 0 0 1-.608-7.05 1602.186 1602.186 0 0 1-.292-3.378l-.064-.763c-.02-.219-.038-.438-.057-.663-.053-.944-.043-1.882-.04-2.828 6.793-.733 13.6-1.321 20.408-1.92l5.128-.451a33022.714 33022.714 0 0 1 18.14-1.597l.586-.052 2.355-.207 22.016-1.938a193811.195 193811.195 0 0 1 63.098-5.556 13467.871 13467.871 0 0 0 9.664-.85 2953.144 2953.144 0 0 0 3.94-.347l.665-.06a30.855 30.855 0 0 1 2.692-.13Z"/><path fill="#FEFEFE" d="M19.087 50.6c.912.36 1.637.674 2.46 1.162l.642.38.681.407.717.427c1.643.984 3.264 2 4.873 3.038 3.848 2.48 7.77 4.845 11.686 7.219a601.21 601.21 0 0 1 6.761 4.15c1.362.852 2.705 1.73 4.042 2.617-.67.75-1.42 1.166-2.307 1.643l-.455.246a1309.12 1309.12 0 0 0-4.143 2.233c-1.741.939-3.476 1.89-5.21 2.842l-1.777.976-.886.487-3.576 1.962-1.78.976a5167.161 5167.161 0 0 1-7.569 4.147l-.855.468-.75.411c-.479.267-.95.545-1.417.831-.606.344-.606.344-1.137.344V50.599Z"/><path fill="#F6B827" d="M160.61 54.008h6.372a985.3 985.3 0 0 1 2.871 14.026l.404 2.036.974 4.911h.265l.139-.749 1.301-6.99.669-3.594.646-3.468.246-1.323.345-1.853.102-.553c.155-.824.329-1.63.535-2.443h6.372v31.985h-4.513l-.266-18.615-2.248 11.884-.32 1.683-.213 1.128c-.107.569-.215 1.137-.324 1.705l-.184.972c-.163.718-.163.718-.428.98h-4.249l-3.717-18.614-.265 18.877h-4.514V54.008Z"/><path fill="#FEFDFA" d="M58.384 54.008h4.514l.137 1.349a11087.39 11087.39 0 0 0 .735 7.174c.49 4.823.49 4.823 1.021 9.641l.118 1.016c.07.729.07.729.378 1.269l.101-.809a1438.358 1438.358 0 0 1 2.424-18.624c.13-.754.13-.754.396-1.017a42.342 42.342 0 0 1 1.859-.032l1.029-.002c.83.035.83.035 1.095.297.104.611.194 1.22.274 1.834l.078.582c.086.636.17 1.273.255 1.91l.177 1.322c.156 1.161.31 2.323.465 3.485l.475 3.553c.312 2.325.622 4.65.931 6.977.51-.503.405-1.41.466-2.097l.055-.582a2948.626 2948.626 0 0 1 .3-3.232c.11-1.161.217-2.323.325-3.485l.33-3.553c.218-2.325.433-4.65.648-6.977h4.514c-.159 3.12-.483 6.194-.875 9.292-.509 4.02-.994 8.04-1.434 12.067l-.11 1.007c-.176 1.623-.35 3.248-.524 4.872l-.19 1.766-.086.826-.082.748-.069.655c-.082.49-.082.49-.347.753a15.25 15.25 0 0 1-1.072.025l-.65-.002-.684-.007-.688-.004-1.686-.012c-.428-2.184-.748-4.374-1.038-6.58l-.138-1.04c-.17-1.272-.339-2.544-.507-3.817-.12-.91-.24-1.818-.362-2.727l-.27-2.037-.123-.926-.108-.815c-.094-.701-.094-.701-.374-1.46a15109.527 15109.527 0 0 0-1.762 12.129l-.157 1.08c-.343 2.344-.343 2.344-.621 4.696-.115.972-.115.972-.381 1.497-.791.007-1.582.012-2.373.016l-.684.007-.651.002-.602.004c-.47-.03-.47-.03-.735-.292a77.1 77.1 0 0 1-.3-2.37l-.088-.762c-.065-.553-.128-1.106-.192-1.66-.5-4.363-1.025-8.723-1.59-13.078-.025-.188-.05-.375-.074-.567a2418.9 2418.9 0 0 0-.935-7.134l-.255-1.932-.114-.872-.1-.755c-.079-.86-.07-1.728-.07-2.593Z"/><path fill="#FEFDF8" d="M130.871 54.008h4.78v12.846h4.248V54.008h5.045v31.985h-5.045V71.31h-4.248v14.682h-4.78c-.431-.426-.299-.898-.299-1.487l-.002-.802.001-.887-.001-.929V76.72c-.001-1.478 0-2.957.001-4.435.002-1.712.001-3.424 0-5.135-.002-1.467-.002-2.934-.001-4.401l-.001-2.632.002-2.933-.001-.887.002-.802v-.701c.034-.523.034-.523.299-.785Z"/><path fill="#FEFDFB" d="m88.47 53.973.866-.001.91.003.911-.003h.865l.8.002c.61.034.61.034.876.296.125.734.236 1.466.337 2.204l.098.686.205 1.461c.178 1.269.36 2.537.54 3.805l.109.756c.273 1.905.569 3.805.885 5.704.377 2.26.706 4.523 1.011 6.793.188 1.391.405 2.77.672 4.15.154.807.292 1.616.425 2.428l.135.815c.097.823.097.823.097 2.658h-4.514l-.796-5.243-5.045-.262-.117 1.72a49.255 49.255 0 0 1-.414 3.785h-4.78c.16-2.335.413-4.633.758-6.948a7966.405 7966.405 0 0 0 .458-3.12c.246-1.658.488-3.318.73-4.977a769.802 769.802 0 0 0 1.325-9.35c.172-1.259.341-2.518.509-3.778l.178-1.319.079-.602c.215-1.583.286-1.662 1.888-1.663Z"/><path fill="#FEFEFC" d="M123.968 54.794c1.523 1.193 2.186 2.901 2.655 4.72.118 1.244.102 2.47.066 3.719l-.014.983c-.013.792-.032 1.584-.052 2.376h-4.78l-.03-1.445-.053-1.882-.018-.951-.028-.92-.021-.844c-.13-.873-.378-1.383-.912-2.085-.603-.158-.603-.158-1.244-.083l-.651.036c-.163.016-.326.03-.494.047-.684 2.063-.613 4.144-.611 6.29l-.004 1.227a546.86 546.86 0 0 0 0 2.561c.001 1.09-.003 2.178-.009 3.267-.004.843-.004 1.686-.004 2.53 0 .4-.001.802-.004 1.203-.012 2.133.044 4.002.897 5.993l1.859.262c.942-1.174 1.098-2.034 1.146-3.518l.034-.996.031-1.041.035-1.05.081-2.571h4.78c.014 1.18.025 2.36.033 3.54l.014 1.007c.015 2.89-.237 5.571-2.37 7.726-2.087 1.386-4.077 1.679-6.561 1.246-1.566-.424-2.652-1.204-3.596-2.508a18.66 18.66 0 0 1-1.062-2.622l-.265-.786a46.567 46.567 0 0 1-.043-1.869l-.004-.574c-.004-.627-.006-1.255-.007-1.882l-.005-1.314c-.003-.92-.004-1.84-.005-2.76a823.447 823.447 0 0 0-.015-3.515c-.005-.906-.007-1.813-.007-2.719-.001-.431-.003-.862-.007-1.294-.048-6.355-.048-6.355 2.036-8.817 2.456-2.34 6.368-2.37 9.209-.687Z"/><path fill="#F6B827" d="M186.365 54.008h11.152v4.456h-5.841v8.914h5.576v4.457h-5.576v9.7h5.841v4.458h-11.152V54.008Z"/><path fill="#FEFCF7" d="M98.212 54.008h12.214v4.456h-3.452l.002 1.034a15418.011 15418.011 0 0 1 .018 14.563c.003 1.59.005 3.18.005 4.769a6738263.125 6738263.125 0 0 1 .008 5.138l-.001.696.001.608c-.033.458-.033.458-.298.72h-4.78V58.465h-3.717v-4.456Z"/><path fill="#FEFDFB" d="M10.59 111.161c1.62.071 3.239.148 4.858.229.623.029 1.246.052 1.87.072l.972.043.846.03c1.484.299 2.289 1.397 3.187 2.526a56.027 56.027 0 0 0 2.622 3.015c3.435 3.69 3.435 3.69 3.435 4.31-.946.032-1.889.032-2.834.012-.448-.009-.895-.014-1.342-.017-4.724-.063-4.724-.063-6.214-1.095-.595-.739-1.07-1.498-1.559-2.308a42.018 42.018 0 0 0-1.327-1.442 65.83 65.83 0 0 1-4.514-5.375ZM28.38 18.352c-.57 1.012-1.223 1.812-2.025 2.654a60.358 60.358 0 0 0-2.655 3.015c-.197.236-.394.472-.598.714-.364.45-.714.91-1.045 1.383-.991 1.318-1.743 1.82-3.402 2.065-.743.058-1.48.101-2.224.131l-1.557.084c-1.427.074-2.855.131-4.284.179a35.881 35.881 0 0 1 3.136-3.753 61.763 61.763 0 0 0 3.492-3.998c.179-.21.357-.422.54-.639l.53-.716c1.241-.924 2.516-.866 4.035-.939l.873-.058a68.15 68.15 0 0 1 5.184-.122ZM126.888 121.386l2.871.114.809.032c1.347.055 2.693.124 4.038.225l.704.053c1.797.297 2.884 2.207 3.944 3.515 1.049 1.267 2.18 2.459 3.3 3.664.367.397.732.795 1.095 1.196l.451.492c.313.409.313.409.313.933a602.606 602.606 0 0 1-3.301-.195l-1.121-.065c-.54-.031-1.08-.064-1.62-.098l-.982-.058c-2.713-.31-2.713-.31-3.616-1.405l-.4-.472-.411-.509-.896-1.066-.46-.555a74.634 74.634 0 0 0-1.432-1.646l-.472-.53-.895-1c-.738-.835-1.377-1.647-1.919-2.625ZM144.413 8.127c-.415.965-1.019 1.617-1.743 2.376a55.708 55.708 0 0 0-2.638 2.999l-.606.712c-.606.721-.606.721-1.095 1.534-.83 1.171-1.458 1.912-2.873 2.255-1.962.288-3.933.342-5.914.349l-.799.004c-.619 0-1.238 0-1.857-.004.694-1.074 1.42-2 2.307-2.933a68.072 68.072 0 0 0 3.189-3.674l.611-.734.35-.535c.686-.95 1.195-1.472 2.35-1.804a36.489 36.489 0 0 1 3.009-.283l1.04-.085a54.419 54.419 0 0 1 4.669-.177ZM67.146 14.944c-1.03 1.428-2.157 2.73-3.354 4.024a61.87 61.87 0 0 0-1.873 2.186l-.605.723c-.533.64-.533.64-.923 1.241-.584.829-.974 1.196-1.973 1.482-.897.145-1.783.236-2.69.306l-.76.086c-1.783.194-3.555.204-5.347.177.399-.904.93-1.527 1.61-2.245.863-.928 1.69-1.87 2.49-2.851l.607-.72c.617-.734.617-.734 1.158-1.544.96-1.273 1.741-2.081 3.348-2.367 1.149-.138 2.296-.192 3.453-.219a29.625 29.625 0 0 0 2.32-.18c.85-.081 1.685-.108 2.539-.1ZM105.912 11.536c-1.035 1.436-2.168 2.737-3.385 4.024a56.856 56.856 0 0 0-2.943 3.429l-.575.674-.31.42c-.826 1-1.5 1.27-2.798 1.421a69.09 69.09 0 0 1-1.738.092l-.87.055a73.02 73.02 0 0 1-5.17.11c1.089-1.508 2.288-2.867 3.559-4.228.875-.958 1.7-1.95 2.52-2.955l.558-.683.578-.809c.573-.674.745-.763 1.66-1.015l1.031-.075.557-.046a99.512 99.512 0 0 1 1.75-.12c.392-.03.784-.06 1.176-.092 1.467-.113 2.928-.222 4.4-.202ZM88.122 117.978c2-.073 3.968.041 5.958.229l.695.062c2.057.207 3.179.614 4.566 2.183l.384.424a91.049 91.049 0 0 1 2.926 3.458c.883 1.053 1.821 2.051 2.764 3.051.497.555.497.555.497.817a166.82 166.82 0 0 1-3.165-.18 61.393 61.393 0 0 0-2.747-.115c-3.42-.128-3.42-.128-4.677-1.057-.604-.742-1.107-1.515-1.625-2.318-.465-.546-.961-1.058-1.46-1.573-3.435-3.637-3.435-3.637-4.116-4.981ZM49.621 114.569c8.712-.096 8.712-.096 10.577 1.518.693.744 1.253 1.565 1.805 2.414.65.939 1.436 1.762 2.206 2.606a39.494 39.494 0 0 1 2.937 3.687c-1.063-.051-2.124-.11-3.186-.182a44.666 44.666 0 0 0-2.639-.094c-2.018-.056-3.62-.151-5.097-1.619a26.894 26.894 0 0 1-1.489-1.849c-.497-.671-1.04-1.303-1.579-1.942l-.566-.698c-.805-.966-1.664-1.88-2.53-2.793-.439-.523-.439-.523-.439-1.048Z"/><path fill="#F6BA2E" d="M90.246 60.824h.266a2704.057 2704.057 0 0 1 .892 6.48c.416 2.996.796 5.968.967 8.988h-3.983a242.85 242.85 0 0 1 1.078-10.683l.071-.585.204-1.656.12-.97c.12-.788.12-.788.385-1.574Z"/></svg>